<svg xmlns="http://www.w3.org/2000/svg" width="200px" height="200px" preserveAspectRatio="xMidYMid meet" version="1.0" viewBox="0 0 2000 2000">
    <g id="layer102" fill="white" stroke="none">
        <path d="M1528 1270 c-118 -35 -194 -154 -186 -288 5 -78 28 -132 78 -182 50 -50 104 -73 182 -78 173 -11 300 107 300 276 0 116 -55 207 -154 256 -42 21 -66 26 -122 25 -39 0 -83 -4 -98 -9z"/>
        <path d="M244 1249 c-48 -14 -108 -80 -127 -140 -17 -52 -24 -233 -11 -297 9 -47 39 -72 82 -72 73 0 76 8 82 194 4 137 8 168 22 182 9 9 23 14 32 11 13 -5 15 -29 14 -149 -2 -180 3 -203 47 -218 18 -6 45 -8 59 -4 50 12 56 35 56 199 0 159 7 188 37 169 25 -16 30 -50 32 -204 1 -163 8 -180 76 -180 26 0 50 6 59 15 27 28 38 95 34 215 -4 130 -21 182 -77 236 -55 54 -164 68 -217 30 -15 -11 -24 -10 -58 5 -44 20 -92 23 -142 8z"/>
        <path d="M966 1245 c-53 -19 -85 -44 -119 -91 -54 -77 -57 -228 -6 -311 79 -128 287 -148 389 -38 21 23 25 36 25 92 0 60 -2 67 -33 94 -42 38 -112 41 -136 7 -20 -28 -20 -51 0 -89 30 -58 -29 -81 -69 -27 -46 62 -27 182 34 213 42 22 68 18 131 -21 39 -24 65 -33 78 -29 73 23 -14 172 -119 204 -51 15 -127 13 -175 -4z"/>
    </g>

    <g fill="black">
        <path d="M1571 1203 c-35 -7 -94 -48 -120 -83 -12 -17 -25 -51 -30 -76 l-9 -45 22 20 c24 23 46 27 46 10 0 -6 10 -9 23 -8 29 4 47 -8 47 -32 0 -12 10 -23 25 -29 29 -11 32 -32 9 -51 -15 -12 -14 -14 7 -19 33 -8 34 -59 1 -76 l-23 -11 23 -7 c58 -15 132 10 180 61 30 32 58 94 58 129 0 33 -18 30 -26 -3 -9 -38 -24 -54 -44 -51 -10 2 -27 -5 -38 -15 -27 -24 -53 -11 -77 39 -19 41 -13 83 13 86 9 0 23 2 31 2 16 1 26 25 34 86 5 38 3 48 -13 57 -21 14 -104 23 -139 16z"/>
        <path d="M1497 906 c-3 -7 -1 -18 5 -24 8 -8 8 -15 -1 -25 -9 -11 -8 -17 4 -27 13 -10 15 -9 15 8 0 11 7 25 15 32 11 9 12 16 2 31 -14 22 -33 25 -40 5z"/>
    </g>
</svg>
